<svg xmlns="http://www.w3.org/2000/svg" viewBox="0 0 800 400" width="800" height="400">
  <defs>
    <linearGradient id="bg2" x1="0%" y1="0%" x2="100%" y2="100%">
      <stop offset="0%" style="stop-color:#0a2540"/>
      <stop offset="100%" style="stop-color:#1a4a7a"/>
    </linearGradient>
  </defs>
  <rect width="800" height="400" fill="url(#bg2)"/>
  <!-- Chart bars -->
  <rect x="100" y="280" width="60" height="80" fill="#1a6fd4" opacity="0.7" rx="4"/>
  <rect x="180" y="220" width="60" height="140" fill="#2a85e8" opacity="0.7" rx="4"/>
  <rect x="260" y="180" width="60" height="180" fill="#1a6fd4" opacity="0.7" rx="4"/>
  <rect x="340" y="140" width="60" height="220" fill="#4a9eff" opacity="0.8" rx="4"/>
  <rect x="420" y="100" width="60" height="260" fill="#2a85e8" opacity="0.7" rx="4"/>
  <rect x="500" y="80" width="60" height="280" fill="#4a9eff" opacity="0.9" rx="4"/>
  <!-- Trend line -->
  <polyline points="130,270 210,210 290,170 370,130 450,90 530,70" fill="none" stroke="#7dd3fc" stroke-width="3" stroke-opacity="0.9"/>
  <!-- Dots on trend line -->
  <circle cx="130" cy="270" r="5" fill="#7dd3fc"/>
  <circle cx="210" cy="210" r="5" fill="#7dd3fc"/>
  <circle cx="290" cy="170" r="5" fill="#7dd3fc"/>
  <circle cx="370" cy="130" r="5" fill="#7dd3fc"/>
  <circle cx="450" cy="90" r="5" fill="#7dd3fc"/>
  <circle cx="530" cy="70" r="5" fill="#7dd3fc"/>
  <!-- Label box -->
  <rect x="580" y="140" width="170" height="120" rx="10" fill="#ffffff12"/>
  <text x="665" y="168" text-anchor="middle" fill="#7dd3fc" font-size="12" font-family="Arial" font-weight="bold">AI Engagement</text>
  <text x="665" y="192" text-anchor="middle" fill="white" font-size="11" font-family="Arial">Adaptive Marketing</text>
  <text x="665" y="214" text-anchor="middle" fill="#4a9eff" font-size="13" font-family="Arial" font-weight="bold">↑ 34% uplift</text>
  <text x="665" y="236" text-anchor="middle" fill="white" font-size="10" font-family="Arial" opacity="0.7">Banking CX · FinTech</text>
  <!-- Title -->
  <text x="400" y="370" text-anchor="middle" fill="#7dd3fc" font-size="14" font-family="Arial" font-weight="bold" opacity="0.8">AI-Powered Adaptive Engagement · Scientific Reports 2026</text>
</svg>
