<svg xmlns="http://www.w3.org/2000/svg" viewBox="0 0 800 420" width="800" height="420">
  <defs>
    <!-- Body / chest wall -->
    <radialGradient id="chest" cx="50%" cy="45%" r="55%">
      <stop offset="0%" stop-color="#4a4a4a"/>
      <stop offset="60%" stop-color="#2e2e2e"/>
      <stop offset="100%" stop-color="#111"/>
    </radialGradient>
    <!-- Lung parenchyma — very dark, air-filled -->
    <radialGradient id="lungDark" cx="50%" cy="40%" r="60%">
      <stop offset="0%" stop-color="#0e0e0e"/>
      <stop offset="70%" stop-color="#080808"/>
      <stop offset="100%" stop-color="#050505"/>
    </radialGradient>
    <!-- Mediastinum / heart -->
    <radialGradient id="medi" cx="50%" cy="50%" r="50%">
      <stop offset="0%" stop-color="#888"/>
      <stop offset="100%" stop-color="#444"/>
    </radialGradient>
    <!-- Spine -->
    <radialGradient id="spine" cx="50%" cy="30%" r="50%">
      <stop offset="0%" stop-color="#e8e8e8"/>
      <stop offset="100%" stop-color="#aaa"/>
    </radialGradient>
    <!-- Teal segmentation glow -->
    <filter id="segGlow">
      <feGaussianBlur stdDeviation="3" result="b"/>
      <feMerge><feMergeNode in="b"/><feMergeNode in="SourceGraphic"/></feMerge>
    </filter>
    <!-- soft inner glow for segmented lungs -->
    <radialGradient id="lungTeal" cx="50%" cy="50%" r="60%">
      <stop offset="0%" stop-color="#003344" stop-opacity="0.7"/>
      <stop offset="100%" stop-color="#000" stop-opacity="0"/>
    </radialGradient>
    <!-- Panel border glow -->
    <filter id="panelGlow">
      <feGaussianBlur stdDeviation="4" result="b"/>
      <feMerge><feMergeNode in="b"/><feMergeNode in="SourceGraphic"/></feMerge>
    </filter>
    <!-- CNN layer gradients -->
    <linearGradient id="cnnBlue" x1="0%" y1="0%" x2="100%" y2="100%">
      <stop offset="0%" stop-color="#1a4a8a"/>
      <stop offset="100%" stop-color="#0d3060"/>
    </linearGradient>
    <linearGradient id="cnnTeal" x1="0%" y1="0%" x2="100%" y2="100%">
      <stop offset="0%" stop-color="#0d7a7a"/>
      <stop offset="100%" stop-color="#085555"/>
    </linearGradient>
    <linearGradient id="cnnPurple" x1="0%" y1="0%" x2="100%" y2="100%">
      <stop offset="0%" stop-color="#4a1a8a"/>
      <stop offset="100%" stop-color="#30105c"/>
    </linearGradient>
    <linearGradient id="cnnIndigo" x1="0%" y1="0%" x2="100%" y2="100%">
      <stop offset="0%" stop-color="#2a2a8a"/>
      <stop offset="100%" stop-color="#1a1a5c"/>
    </linearGradient>
    <!-- arrow marker -->
    <marker id="arr" markerWidth="8" markerHeight="8" refX="6" refY="3" orient="auto">
      <path d="M0,0 L0,6 L8,3 z" fill="#4fc3f7"/>
    </marker>
    <!-- Severity lung gradient fills -->
    <radialGradient id="sev0" cx="50%" cy="45%" r="55%">
      <stop offset="0%" stop-color="#1a2a3a"/>
      <stop offset="100%" stop-color="#0a1520"/>
    </radialGradient>
    <radialGradient id="sev1" cx="50%" cy="45%" r="55%">
      <stop offset="0%" stop-color="#223040"/>
      <stop offset="100%" stop-color="#0a1520"/>
    </radialGradient>
    <radialGradient id="sev2" cx="50%" cy="45%" r="55%">
      <stop offset="0%" stop-color="#3a3a50"/>
      <stop offset="100%" stop-color="#151525"/>
    </radialGradient>
    <radialGradient id="sev3" cx="50%" cy="45%" r="55%">
      <stop offset="0%" stop-color="#606070"/>
      <stop offset="100%" stop-color="#252535"/>
    </radialGradient>
    <clipPath id="ctClip1">  <rect x="15"  y="38" width="185" height="170"/> </clipPath>
    <clipPath id="ctClip2">  <rect x="210" y="38" width="185" height="170"/> </clipPath>
  </defs>

  <!-- ══════════════════════════════════════════
       BACKGROUND
  ══════════════════════════════════════════ -->
  <rect width="800" height="420" fill="#050b18"/>

  <!-- ══════════════════════════════════════════
       TITLE
  ══════════════════════════════════════════ -->
  <text x="400" y="22" text-anchor="middle"
        font-family="Georgia,'Times New Roman',serif"
        font-size="14.5" font-weight="600" fill="#d8eaff" letter-spacing="0.3">
    Automated Lung Segmentation and Severity Classification in Chest CT
  </text>
  <line x1="15" y1="30" x2="785" y2="30" stroke="#0d2a4a" stroke-width="1"/>

  <!-- ══════════════════════════════════════════
       HELPER MACRO: axial CT slice centred at (cx,cy) scale s
       Drawn twice — raw + segmented
  ══════════════════════════════════════════ -->

  <!-- ── PANEL 1: Raw CT ── -->
  <rect x="15" y="38" width="185" height="170" rx="6" fill="#000" stroke="#1a3a5a" stroke-width="1.2"/>
  <text x="107" y="52" text-anchor="middle" font-family="system-ui,sans-serif" font-size="8.5" fill="#78909c">CT Scan</text>

  <!-- chest wall ellipse -->
  <ellipse cx="107" cy="131" rx="80" ry="72" fill="url(#chest)" clip-path="url(#ctClip1)"/>
  <!-- right lung (anatomical R = image left) -->
  <path d="M62,100 Q48,110 45,130 Q44,150 52,165 Q62,178 75,178 Q90,175 95,160 Q100,145 98,125 Q95,108 82,100 Z"
        fill="url(#lungDark)" clip-path="url(#ctClip1)"/>
  <!-- left lung -->
  <path d="M152,100 Q138,108 135,125 Q133,145 138,160 Q143,175 158,178 Q172,178 180,165 Q188,150 187,130 Q185,110 172,100 Z"
        fill="url(#lungDark)" clip-path="url(#ctClip1)"/>
  <!-- mediastinum / heart -->
  <ellipse cx="107" cy="140" rx="28" ry="26" fill="url(#medi)" clip-path="url(#ctClip1)"/>
  <ellipse cx="103" cy="143" rx="18" ry="17" fill="#5a5a5a" clip-path="url(#ctClip1)"/>
  <!-- ascending aorta -->
  <circle cx="118" cy="128" r="7" fill="#666" clip-path="url(#ctClip1)"/>
  <!-- SVC -->
  <circle cx="126" cy="122" r="5" fill="#555" clip-path="url(#ctClip1)"/>
  <!-- spine -->
  <ellipse cx="107" cy="185" rx="12" ry="9" fill="url(#spine)" clip-path="url(#ctClip1)"/>
  <!-- rib highlights — small arcs either side -->
  <path d="M40,108 Q38,128 42,148" fill="none" stroke="#888" stroke-width="2.5" stroke-linecap="round" clip-path="url(#ctClip1)"/>
  <path d="M174,108 Q176,128 172,148" fill="none" stroke="#888" stroke-width="2.5" stroke-linecap="round" clip-path="url(#ctClip1)"/>
  <path d="M44,95 Q42,115 46,135" fill="none" stroke="#666" stroke-width="1.8" stroke-linecap="round" clip-path="url(#ctClip1)"/>
  <path d="M170,95 Q172,115 168,135" fill="none" stroke="#666" stroke-width="1.8" stroke-linecap="round" clip-path="url(#ctClip1)"/>
  <!-- lung vessels — subtle brighter lines -->
  <path d="M70,118 Q65,130 68,148" fill="none" stroke="#282828" stroke-width="1" clip-path="url(#ctClip1)"/>
  <path d="M80,110 Q74,125 77,145" fill="none" stroke="#282828" stroke-width="1" clip-path="url(#ctClip1)"/>
  <path d="M88,108 Q84,125 86,148" fill="none" stroke="#282828" stroke-width="1" clip-path="url(#ctClip1)"/>
  <path d="M138,110 Q143,125 140,148" fill="none" stroke="#282828" stroke-width="1" clip-path="url(#ctClip1)"/>
  <path d="M148,112 Q154,128 151,150" fill="none" stroke="#282828" stroke-width="1" clip-path="url(#ctClip1)"/>
  <!-- carina / bronchi -->
  <path d="M97,116 Q93,110 82,108" fill="none" stroke="#555" stroke-width="1.5" clip-path="url(#ctClip1)"/>
  <path d="M117,116 Q121,110 132,108" fill="none" stroke="#555" stroke-width="1.5" clip-path="url(#ctClip1)"/>
  <!-- HU label -->
  <text x="20" y="198" font-family="monospace" font-size="6.5" fill="#37474f">WL -600  WW 1500</text>

  <!-- ── Arrow ── -->
  <line x1="205" y1="123" x2="208" y2="123" stroke="#4fc3f7" stroke-width="1.5" marker-end="url(#arr)"/>
  <text x="207" y="118" text-anchor="middle" font-family="system-ui,sans-serif" font-size="7" fill="#4fc3f7">→</text>

  <!-- ── PANEL 2: Segmented CT ── -->
  <rect x="210" y="38" width="185" height="170" rx="6" fill="#000" stroke="#00bcd4" stroke-width="1.4" filter="url(#panelGlow)"/>
  <text x="302" y="52" text-anchor="middle" font-family="system-ui,sans-serif" font-size="8.5" fill="#4fc3f7">Segmentation</text>

  <!-- same anatomy offset by 195 -->
  <!-- chest wall -->
  <ellipse cx="302" cy="131" rx="80" ry="72" fill="url(#chest)" clip-path="url(#ctClip2)"/>
  <!-- right lung with teal tint -->
  <path d="M257,100 Q243,110 240,130 Q239,150 247,165 Q257,178 270,178 Q285,175 290,160 Q295,145 293,125 Q290,108 277,100 Z"
        fill="url(#lungDark)" clip-path="url(#ctClip2)"/>
  <path d="M257,100 Q243,110 240,130 Q239,150 247,165 Q257,178 270,178 Q285,175 290,160 Q295,145 293,125 Q290,108 277,100 Z"
        fill="url(#lungTeal)" clip-path="url(#ctClip2)"/>
  <!-- left lung with teal tint -->
  <path d="M347,100 Q333,108 330,125 Q328,145 333,160 Q338,175 353,178 Q367,178 375,165 Q383,150 382,130 Q380,110 367,100 Z"
        fill="url(#lungDark)" clip-path="url(#ctClip2)"/>
  <path d="M347,100 Q333,108 330,125 Q328,145 333,160 Q338,175 353,178 Q367,178 375,165 Q383,150 382,130 Q380,110 367,100 Z"
        fill="url(#lungTeal)" clip-path="url(#ctClip2)"/>
  <!-- mediastinum -->
  <ellipse cx="302" cy="140" rx="28" ry="26" fill="url(#medi)" clip-path="url(#ctClip2)"/>
  <ellipse cx="298" cy="143" rx="18" ry="17" fill="#5a5a5a" clip-path="url(#ctClip2)"/>
  <circle cx="313" cy="128" r="7" fill="#666" clip-path="url(#ctClip2)"/>
  <circle cx="321" cy="122" r="5" fill="#555" clip-path="url(#ctClip2)"/>
  <!-- spine -->
  <ellipse cx="302" cy="185" rx="12" ry="9" fill="url(#spine)" clip-path="url(#ctClip2)"/>
  <!-- ribs -->
  <path d="M235,108 Q233,128 237,148" fill="none" stroke="#888" stroke-width="2.5" stroke-linecap="round" clip-path="url(#ctClip2)"/>
  <path d="M369,108 Q371,128 367,148" fill="none" stroke="#888" stroke-width="2.5" stroke-linecap="round" clip-path="url(#ctClip2)"/>
  <!-- vessels -->
  <path d="M265,118 Q260,130 263,148" fill="none" stroke="#282828" stroke-width="1" clip-path="url(#ctClip2)"/>
  <path d="M275,110 Q269,125 272,145" fill="none" stroke="#282828" stroke-width="1" clip-path="url(#ctClip2)"/>
  <path d="M333,110 Q338,125 335,148" fill="none" stroke="#282828" stroke-width="1" clip-path="url(#ctClip2)"/>
  <path d="M343,112 Q349,128 346,150" fill="none" stroke="#282828" stroke-width="1" clip-path="url(#ctClip2)"/>
  <!-- bronchi -->
  <path d="M292,116 Q288,110 277,108" fill="none" stroke="#555" stroke-width="1.5" clip-path="url(#ctClip2)"/>
  <path d="M312,116 Q316,110 327,108" fill="none" stroke="#555" stroke-width="1.5" clip-path="url(#ctClip2)"/>

  <!-- ★ SEGMENTATION OUTLINES — teal cyan glow ★ -->
  <!-- right lung outline -->
  <path d="M257,100 Q243,110 240,130 Q239,150 247,165 Q257,178 270,178 Q285,175 290,160 Q295,145 293,125 Q290,108 277,100 Z"
        fill="none" stroke="#00e5ff" stroke-width="2.2" filter="url(#segGlow)" opacity="0.9" clip-path="url(#ctClip2)"/>
  <!-- left lung outline -->
  <path d="M347,100 Q333,108 330,125 Q328,145 333,160 Q338,175 353,178 Q367,178 375,165 Q383,150 382,130 Q380,110 367,100 Z"
        fill="none" stroke="#00e5ff" stroke-width="2.2" filter="url(#segGlow)" opacity="0.9" clip-path="url(#ctClip2)"/>

  <!-- ══════════════════════════════════════════
       CNN ARCHITECTURE  (x: 400-785, y: 38-215)
  ══════════════════════════════════════════ -->
  <text x="592" y="52" text-anchor="middle" font-family="system-ui,sans-serif" font-size="10" fill="#90caf9" font-weight="600" letter-spacing="1">CNN</text>

  <!-- Input mini CT -->
  <rect x="408" y="70" width="48" height="44" rx="3" fill="#000" stroke="#1a3a5a" stroke-width="1"/>
  <ellipse cx="432" cy="92" rx="19" ry="17" fill="#2a2a2a"/>
  <path d="M416,80 Q412,90 414,100" fill="none" stroke="#0e0e0e" stroke-width="1.5"/>
  <path d="M448,80 Q452,90 450,100" fill="none" stroke="#0e0e0e" stroke-width="1.5"/>
  <ellipse cx="432" cy="98" rx="6" ry="5" fill="#555"/>
  <path d="M413,80 Q410,90 413,100" fill="none" stroke="#555" stroke-width="1.5"/>
  <path d="M451,80 Q454,90 451,100" fill="none" stroke="#555" stroke-width="1.5"/>
  <!-- Arrow -->
  <line x1="459" y1="92" x2="466" y2="92" stroke="#4fc3f7" stroke-width="1.3" marker-end="url(#arr)"/>

  <!-- 3-D CNN blocks — each block = front + top + right face -->
  <!-- Helper: draw 3D block at (bx,by) w,h, depth d, color scheme -->

  <!-- Block 1 (largest) — blue -->
  <!-- front -->  <rect x="470" y="65" width="22" height="55" rx="1" fill="url(#cnnBlue)" stroke="#4a80c0" stroke-width="0.7"/>
  <!-- top -->    <polygon points="470,65 492,65 498,59 476,59" fill="#2a6aaa" stroke="#4a80c0" stroke-width="0.5"/>
  <!-- right -->  <polygon points="492,65 498,59 498,114 492,120" fill="#0d3a78" stroke="#4a80c0" stroke-width="0.5"/>
  <!-- grid lines on front -->
  <line x1="470" y1="76" x2="492" y2="76" stroke="#4a80c0" stroke-width="0.4" opacity="0.5"/>
  <line x1="470" y1="87" x2="492" y2="87" stroke="#4a80c0" stroke-width="0.4" opacity="0.5"/>
  <line x1="470" y1="98" x2="492" y2="98" stroke="#4a80c0" stroke-width="0.4" opacity="0.5"/>
  <line x1="470" y1="109" x2="492" y2="109" stroke="#4a80c0" stroke-width="0.4" opacity="0.5"/>
  <line x1="477" y1="65" x2="477" y2="120" stroke="#4a80c0" stroke-width="0.4" opacity="0.5"/>
  <line x1="484" y1="65" x2="484" y2="120" stroke="#4a80c0" stroke-width="0.4" opacity="0.5"/>

  <!-- Block 2 — slightly smaller blue -->
  <rect x="505" y="69" width="20" height="50" rx="1" fill="url(#cnnBlue)" stroke="#4a80c0" stroke-width="0.7"/>
  <polygon points="505,69 525,69 531,63 511,63" fill="#2a6aaa" stroke="#4a80c0" stroke-width="0.5"/>
  <polygon points="525,69 531,63 531,113 525,119" fill="#0d3a78" stroke="#4a80c0" stroke-width="0.5"/>
  <line x1="505" y1="79" x2="525" y2="79" stroke="#4a80c0" stroke-width="0.4" opacity="0.5"/>
  <line x1="505" y1="89" x2="525" y2="89" stroke="#4a80c0" stroke-width="0.4" opacity="0.5"/>
  <line x1="505" y1="99" x2="525" y2="99" stroke="#4a80c0" stroke-width="0.4" opacity="0.5"/>
  <line x1="512" y1="69" x2="512" y2="119" stroke="#4a80c0" stroke-width="0.4" opacity="0.5"/>
  <line x1="519" y1="69" x2="519" y2="119" stroke="#4a80c0" stroke-width="0.4" opacity="0.5"/>

  <!-- dashes between blocks -->
  <line x1="496" y1="92" x2="503" y2="92" stroke="#4fc3f7" stroke-width="0.8" stroke-dasharray="2,1"/>
  <line x1="535" y1="92" x2="542" y2="92" stroke="#4fc3f7" stroke-width="0.8" stroke-dasharray="2,1"/>
  <line x1="572" y1="92" x2="579" y2="92" stroke="#4fc3f7" stroke-width="0.8" stroke-dasharray="2,1"/>
  <line x1="606" y1="92" x2="613" y2="92" stroke="#4fc3f7" stroke-width="0.8" stroke-dasharray="2,1"/>

  <!-- Block 3 — teal, smaller -->
  <rect x="543" y="72" width="17" height="44" rx="1" fill="url(#cnnTeal)" stroke="#00bcd4" stroke-width="0.7"/>
  <polygon points="543,72 560,72 566,66 549,66" fill="#0d9aaa" stroke="#00bcd4" stroke-width="0.5"/>
  <polygon points="560,72 566,66 566,110 560,116" fill="#065e6e" stroke="#00bcd4" stroke-width="0.5"/>
  <line x1="543" y1="83" x2="560" y2="83" stroke="#00bcd4" stroke-width="0.4" opacity="0.5"/>
  <line x1="543" y1="94" x2="560" y2="94" stroke="#00bcd4" stroke-width="0.4" opacity="0.5"/>
  <line x1="543" y1="105" x2="560" y2="105" stroke="#00bcd4" stroke-width="0.4" opacity="0.5"/>
  <line x1="549" y1="72" x2="549" y2="116" stroke="#00bcd4" stroke-width="0.4" opacity="0.5"/>
  <line x1="555" y1="72" x2="555" y2="116" stroke="#00bcd4" stroke-width="0.4" opacity="0.5"/>

  <!-- Block 4 — purple, smaller -->
  <rect x="580" y="76" width="14" height="36" rx="1" fill="url(#cnnPurple)" stroke="#9c27b0" stroke-width="0.7"/>
  <polygon points="580,76 594,76 600,70 586,70" fill="#6a28aa" stroke="#9c27b0" stroke-width="0.5"/>
  <polygon points="594,76 600,70 600,106 594,112" fill="#30105c" stroke="#9c27b0" stroke-width="0.5"/>
  <line x1="580" y1="86" x2="594" y2="86" stroke="#9c27b0" stroke-width="0.4" opacity="0.5"/>
  <line x1="580" y1="96" x2="594" y2="96" stroke="#9c27b0" stroke-width="0.4" opacity="0.5"/>
  <line x1="586" y1="76" x2="586" y2="112" stroke="#9c27b0" stroke-width="0.4" opacity="0.5"/>

  <!-- Block 5 — indigo, smallest -->
  <rect x="614" y="80" width="11" height="28" rx="1" fill="url(#cnnIndigo)" stroke="#7986cb" stroke-width="0.7"/>
  <polygon points="614,80 625,80 631,74 620,74" fill="#3a3a9a" stroke="#7986cb" stroke-width="0.5"/>
  <polygon points="625,80 631,74 631,102 625,108" fill="#1a1a5c" stroke="#7986cb" stroke-width="0.5"/>

  <!-- Arrow to FC -->
  <line x1="637" y1="92" x2="648" y2="92" stroke="#4fc3f7" stroke-width="1.2" marker-end="url(#arr)"/>

  <!-- FC nodes -->
  <g fill="#4fc3f7">
    <circle cx="658" cy="72" r="4"/>
    <circle cx="658" cy="84" r="4"/>
    <circle cx="658" cy="96" r="4"/>
    <circle cx="658" cy="108" r="4"/>
    <circle cx="658" cy="120" r="4"/>
  </g>
  <!-- connections to output -->
  <g stroke="#4fc3f7" stroke-width="0.5" opacity="0.4">
    <line x1="662" y1="72"  x2="676" y2="72"/>
    <line x1="662" y1="72"  x2="676" y2="88"/>
    <line x1="662" y1="84"  x2="676" y2="72"/>
    <line x1="662" y1="84"  x2="676" y2="88"/>
    <line x1="662" y1="96"  x2="676" y2="88"/>
    <line x1="662" y1="96"  x2="676" y2="104"/>
    <line x1="662" y1="108" x2="676" y2="104"/>
    <line x1="662" y1="108" x2="676" y2="120"/>
    <line x1="662" y1="120" x2="676" y2="120"/>
  </g>
  <!-- Output nodes -->
  <circle cx="680" cy="72"  r="5" fill="#43a047"/>
  <circle cx="680" cy="88"  r="5" fill="#fdd835"/>
  <circle cx="680" cy="104" r="5" fill="#ff9800"/>
  <circle cx="680" cy="120" r="5" fill="#ef5350"/>

  <!-- Output labels -->
  <text x="690" y="75"  font-family="system-ui,sans-serif" font-size="7.5" fill="#a5d6a7">Healthy</text>
  <text x="690" y="91"  font-family="system-ui,sans-serif" font-size="7.5" fill="#fff59d">Mild</text>
  <text x="690" y="107" font-family="system-ui,sans-serif" font-size="7.5" fill="#ffcc80">Moderate</text>
  <text x="690" y="123" font-family="system-ui,sans-serif" font-size="7.5" fill="#ef9a9a">Severe</text>

  <!-- Arch label under CNN -->
  <text x="592" y="140" text-anchor="middle" font-family="monospace" font-size="7.5" fill="#37474f">ResNet50 · VGG16 · U-Net backbone · 5-fold CV</text>

  <!-- ══════════════════════════════════════════
       DIVIDER
  ══════════════════════════════════════════ -->
  <line x1="400" y1="35" x2="400" y2="215" stroke="#0d2a4a" stroke-width="1"/>
  <line x1="15"  y1="215" x2="785" y2="215" stroke="#0d2a4a" stroke-width="1"/>

  <!-- ══════════════════════════════════════════
       SEVERITY CLASSIFICATION ROW  (y: 220-410)
  ══════════════════════════════════════════ -->
  <text x="400" y="236" text-anchor="middle" font-family="system-ui,sans-serif" font-size="10" fill="#90caf9" font-weight="600" letter-spacing="1">Severity Classification</text>

  <!-- Arrow from CNN down -->
  <line x1="400" y1="145" x2="400" y2="220" stroke="#4fc3f7" stroke-width="1.3" marker-end="url(#arr)" stroke-dasharray="4,2"/>

  <!-- Four severity circles with lung silhouettes -->
  <!-- helper function: lung silhouette at (lx, ly), scale sc, fill fid, opacity op -->

  <!-- NORMAL -->
  <circle cx="119" cy="325" r="72" fill="url(#sev0)" stroke="#1a4a6a" stroke-width="1.5"/>
  <!-- simplified lung frontal inside circle — clear, dark -->
  <path d="M97,292 Q88,300 86,315 Q85,330 88,345 Q92,358 100,362 Q109,366 115,358 Q119,350 119,338 L119,292 Z"
        fill="#0a1828" stroke="#1e4a6a" stroke-width="1"/>
  <path d="M141,292 Q150,300 152,315 Q153,330 150,345 Q146,358 138,362 Q129,366 123,358 Q119,350 119,338 L119,292 Z"
        fill="#0a1828" stroke="#1e4a6a" stroke-width="1"/>
  <!-- bronchi -->
  <line x1="119" y1="292" x2="119" y2="305" stroke="#1e4a6a" stroke-width="1.5"/>
  <path d="M119,305 Q110,310 100,312" fill="none" stroke="#1e4a6a" stroke-width="1.2"/>
  <path d="M119,305 Q128,310 138,312" fill="none" stroke="#1e4a6a" stroke-width="1.2"/>
  <!-- clear vessels only -->
  <path d="M96,318 Q92,330 94,345" fill="none" stroke="#1a3a5a" stroke-width="0.9" opacity="0.8"/>
  <path d="M142,318 Q146,330 144,345" fill="none" stroke="#1a3a5a" stroke-width="0.9" opacity="0.8"/>
  <text x="119" y="408" text-anchor="middle" font-family="system-ui,sans-serif" font-size="9" fill="#80cbc4">Normal</text>

  <!-- MILD -->
  <circle cx="306" cy="325" r="72" fill="url(#sev1)" stroke="#1e5a7a" stroke-width="1.5"/>
  <path d="M284,292 Q275,300 273,315 Q272,330 275,345 Q279,358 287,362 Q296,366 302,358 Q306,350 306,338 L306,292 Z"
        fill="#0e2030" stroke="#1e4a6a" stroke-width="1"/>
  <path d="M328,292 Q337,300 339,315 Q340,330 337,345 Q333,358 325,362 Q316,366 310,358 Q306,350 306,338 L306,292 Z"
        fill="#0e2030" stroke="#1e4a6a" stroke-width="1"/>
  <line x1="306" y1="292" x2="306" y2="305" stroke="#1e4a6a" stroke-width="1.5"/>
  <path d="M306,305 Q297,310 287,312" fill="none" stroke="#1e4a6a" stroke-width="1.2"/>
  <path d="M306,305 Q315,310 325,312" fill="none" stroke="#1e4a6a" stroke-width="1.2"/>
  <!-- few white lesion dots -->
  <circle cx="283" cy="325" r="3.5" fill="#aac" opacity="0.6"/>
  <circle cx="289" cy="342" r="2.5" fill="#99b" opacity="0.55"/>
  <circle cx="327" cy="320" r="3" fill="#aac" opacity="0.6"/>
  <circle cx="322" cy="338" r="2.5" fill="#99b" opacity="0.5"/>
  <path d="M283,318 Q279,330 281,345" fill="none" stroke="#2a4a6a" stroke-width="0.9" opacity="0.8"/>
  <path d="M329,318 Q333,330 331,345" fill="none" stroke="#2a4a6a" stroke-width="0.9" opacity="0.8"/>
  <text x="306" y="408" text-anchor="middle" font-family="system-ui,sans-serif" font-size="9" fill="#fdd835">Mild</text>

  <!-- MODERATE -->
  <circle cx="493" cy="325" r="72" fill="url(#sev2)" stroke="#2a5a8a" stroke-width="1.5"/>
  <path d="M471,292 Q462,300 460,315 Q459,330 462,345 Q466,358 474,362 Q483,366 489,358 Q493,350 493,338 L493,292 Z"
        fill="#182030" stroke="#2a4a7a" stroke-width="1"/>
  <path d="M515,292 Q524,300 526,315 Q527,330 524,345 Q520,358 512,362 Q503,366 497,358 Q493,350 493,338 L493,292 Z"
        fill="#182030" stroke="#2a4a7a" stroke-width="1"/>
  <line x1="493" y1="292" x2="493" y2="305" stroke="#2a4a7a" stroke-width="1.5"/>
  <path d="M493,305 Q484,310 474,312" fill="none" stroke="#2a4a7a" stroke-width="1.2"/>
  <path d="M493,305 Q502,310 512,312" fill="none" stroke="#2a4a7a" stroke-width="1.2"/>
  <!-- more & larger lesions -->
  <circle cx="469" cy="318" r="5" fill="#bbc" opacity="0.65"/>
  <circle cx="476" cy="334" r="4" fill="#aab" opacity="0.6"/>
  <circle cx="472" cy="348" r="4.5" fill="#bbc" opacity="0.6"/>
  <circle cx="514" cy="320" r="4.5" fill="#bbc" opacity="0.65"/>
  <circle cx="508" cy="336" r="4" fill="#aab" opacity="0.6"/>
  <circle cx="516" cy="350" r="3.5" fill="#bbc" opacity="0.55"/>
  <circle cx="487" cy="310" r="3" fill="#99a" opacity="0.5"/>
  <circle cx="499" cy="312" r="3" fill="#99a" opacity="0.5"/>
  <path d="M470,318 Q466,330 468,345" fill="none" stroke="#3a5a8a" stroke-width="0.9" opacity="0.7"/>
  <path d="M516,318 Q520,330 518,345" fill="none" stroke="#3a5a8a" stroke-width="0.9" opacity="0.7"/>
  <text x="493" y="408" text-anchor="middle" font-family="system-ui,sans-serif" font-size="9" fill="#ff9800">Moderate</text>

  <!-- SEVERE -->
  <circle cx="680" cy="325" r="72" fill="url(#sev3)" stroke="#3a6a9a" stroke-width="1.5"/>
  <path d="M658,292 Q649,300 647,315 Q646,330 649,345 Q653,358 661,362 Q670,366 676,358 Q680,350 680,338 L680,292 Z"
        fill="#252535" stroke="#3a5a8a" stroke-width="1"/>
  <path d="M702,292 Q711,300 713,315 Q714,330 711,345 Q707,358 699,362 Q690,366 684,358 Q680,350 680,338 L680,292 Z"
        fill="#252535" stroke="#3a5a8a" stroke-width="1"/>
  <line x1="680" y1="292" x2="680" y2="305" stroke="#3a5a8a" stroke-width="1.5"/>
  <path d="M680,305 Q671,310 661,312" fill="none" stroke="#3a5a8a" stroke-width="1.2"/>
  <path d="M680,305 Q689,310 699,312" fill="none" stroke="#3a5a8a" stroke-width="1.2"/>
  <!-- dense ground-glass opacity — many patches -->
  <circle cx="656" cy="312" r="6" fill="#ccd" opacity="0.7"/>
  <circle cx="664" cy="326" r="5.5" fill="#bbc" opacity="0.7"/>
  <circle cx="658" cy="340" r="6" fill="#ccd" opacity="0.65"/>
  <circle cx="666" cy="354" r="5" fill="#bbc" opacity="0.65"/>
  <circle cx="701" cy="314" r="6" fill="#ccd" opacity="0.7"/>
  <circle cx="695" cy="328" r="5.5" fill="#bbc" opacity="0.7"/>
  <circle cx="703" cy="342" r="5.5" fill="#ccd" opacity="0.65"/>
  <circle cx="697" cy="356" r="5" fill="#bbc" opacity="0.6"/>
  <circle cx="674" cy="308" r="4" fill="#bbc" opacity="0.6"/>
  <circle cx="686" cy="308" r="4" fill="#bbc" opacity="0.6"/>
  <circle cx="674" cy="350" r="4.5" fill="#ccd" opacity="0.6"/>
  <circle cx="686" cy="350" r="4.5" fill="#ccd" opacity="0.6"/>
  <path d="M657,318 Q653,330 655,345" fill="none" stroke="#4a6a9a" stroke-width="0.9" opacity="0.6"/>
  <path d="M703,318 Q707,330 705,345" fill="none" stroke="#4a6a9a" stroke-width="0.9" opacity="0.6"/>
  <text x="680" y="408" text-anchor="middle" font-family="system-ui,sans-serif" font-size="9" fill="#ef5350">Severe</text>

  <!-- Arrows between severity circles -->
  <line x1="193" y1="325" x2="230" y2="325" stroke="#2a4a6a" stroke-width="1.2" marker-end="url(#arr)" opacity="0.7"/>
  <line x1="380" y1="325" x2="417" y2="325" stroke="#2a4a6a" stroke-width="1.2" marker-end="url(#arr)" opacity="0.7"/>
  <line x1="567" y1="325" x2="604" y2="325" stroke="#2a4a6a" stroke-width="1.2" marker-end="url(#arr)" opacity="0.7"/>
</svg>
